<svg width="215" height="32" viewBox="0 0 215 32" fill="none" xmlns="http://www.w3.org/2000/svg">
<path d="M48.9609 17.5664C48.9609 15.5977 49.4219 14.0273 50.3438 12.8555C51.2734 11.6758 52.5039 11.0859 54.0352 11.0859C55.4805 11.0859 56.6172 11.5898 57.4453 12.5977L57.5742 11.3203H60.1406V23.6133C60.1406 25.2773 59.6211 26.5898 58.582 27.5508C57.5508 28.5117 56.1562 28.9922 54.3984 28.9922C53.4688 28.9922 52.5586 28.7969 51.668 28.4062C50.7852 28.0234 50.1133 27.5195 49.6523 26.8945L51 25.1836C51.875 26.2227 52.9531 26.7422 54.2344 26.7422C55.1797 26.7422 55.9258 26.4844 56.4727 25.9688C57.0195 25.4609 57.293 24.7109 57.293 23.7188V22.8633C56.4727 23.7773 55.3789 24.2344 54.0117 24.2344C52.5273 24.2344 51.3125 23.6445 50.3672 22.4648C49.4297 21.2852 48.9609 19.6523 48.9609 17.5664ZM51.7969 17.8125C51.7969 19.0859 52.0547 20.0898 52.5703 20.8242C53.0938 21.5508 53.8164 21.9141 54.7383 21.9141C55.8867 21.9141 56.7383 21.4219 57.293 20.4375V14.8594C56.7539 13.8984 55.9102 13.418 54.7617 13.418C53.8242 13.418 53.0938 13.7891 52.5703 14.5312C52.0547 15.2734 51.7969 16.3672 51.7969 17.8125ZM66.1055 24H63.2578V11.3203H66.1055V24ZM63.082 8.02734C63.082 7.58984 63.2188 7.22656 63.4922 6.9375C63.7734 6.64844 64.1719 6.50391 64.6875 6.50391C65.2031 6.50391 65.6016 6.64844 65.8828 6.9375C66.1641 7.22656 66.3047 7.58984 66.3047 8.02734C66.3047 8.45703 66.1641 8.81641 65.8828 9.10547C65.6016 9.38672 65.2031 9.52734 64.6875 9.52734C64.1719 9.52734 63.7734 9.38672 63.4922 9.10547C63.2188 8.81641 63.082 8.45703 63.082 8.02734ZM72.7852 8.23828V11.3203H75.0234V13.4297H72.7852V20.5078C72.7852 20.9922 72.8789 21.3438 73.0664 21.5625C73.2617 21.7734 73.6055 21.8789 74.0977 21.8789C74.4258 21.8789 74.7578 21.8398 75.0938 21.7617V23.9648C74.4453 24.1445 73.8203 24.2344 73.2188 24.2344C71.0312 24.2344 69.9375 23.0273 69.9375 20.6133V13.4297H67.8516V11.3203H69.9375V8.23828H72.7852ZM80.0156 12.7031C80.9453 11.625 82.1211 11.0859 83.543 11.0859C86.2461 11.0859 87.6172 12.6289 87.6562 15.7148V24H84.8086V15.8203C84.8086 14.9453 84.6172 14.3281 84.2344 13.9688C83.8594 13.6016 83.3047 13.418 82.5703 13.418C81.4297 13.418 80.5781 13.9258 80.0156 14.9414V24H77.168V6H80.0156V12.7031ZM98.2266 22.7578C97.3906 23.7422 96.2031 24.2344 94.6641 24.2344C93.2891 24.2344 92.2461 23.832 91.5352 23.0273C90.832 22.2227 90.4805 21.0586 90.4805 19.5352V11.3203H93.3281V19.5C93.3281 21.1094 93.9961 21.9141 95.332 21.9141C96.7148 21.9141 97.6484 21.418 98.1328 20.4258V11.3203H100.98V24H98.2969L98.2266 22.7578ZM115.008 17.7891C115.008 19.7578 114.566 21.3242 113.684 22.4883C112.809 23.6523 111.602 24.2344 110.062 24.2344C108.578 24.2344 107.422 23.6992 106.594 22.6289L106.453 24H103.875V6H106.723V12.5391C107.543 11.5703 108.648 11.0859 110.039 11.0859C111.586 11.0859 112.801 11.6602 113.684 12.8086C114.566 13.957 115.008 15.5625 115.008 17.625V17.7891ZM112.16 17.543C112.16 16.168 111.918 15.1367 111.434 14.4492C110.949 13.7617 110.246 13.418 109.324 13.418C108.09 13.418 107.223 13.957 106.723 15.0352V20.2617C107.23 21.3633 108.105 21.9141 109.348 21.9141C110.238 21.9141 110.926 21.582 111.41 20.918C111.895 20.2539 112.145 19.25 112.16 17.9062V17.543Z" fill="#737380"/>
<path d="M126.727 26.2383H115.98V24H126.727V26.2383ZM128.988 24V13.4297H127.055V11.3203H128.988V10.4531C128.996 9.46094 129.207 8.60938 129.621 7.89844C130.035 7.1875 130.621 6.65234 131.379 6.29297C132.137 5.93359 133.047 5.75391 134.109 5.75391C134.734 5.75391 135.332 5.82031 135.902 5.95312C136.48 6.08594 137.078 6.25391 137.695 6.45703L137.262 8.8125C136.184 8.4375 135.199 8.25 134.309 8.25C133.441 8.25 132.812 8.44141 132.422 8.82422C132.031 9.19922 131.836 9.76562 131.836 10.5234V11.3203H134.332V13.4297H131.836V24H128.988ZM139.043 24H136.195V11.3203H139.043V24ZM144.844 11.3203L144.926 12.7852C145.863 11.6523 147.094 11.0859 148.617 11.0859C151.258 11.0859 152.602 12.5977 152.648 15.6211V24H149.801V15.7852C149.801 14.9805 149.625 14.3867 149.273 14.0039C148.93 13.6133 148.363 13.418 147.574 13.418C146.426 13.418 145.57 13.9375 145.008 14.9766V24H142.16V11.3203H144.844ZM155.027 17.5664C155.027 15.6133 155.48 14.0469 156.387 12.8672C157.293 11.6797 158.508 11.0859 160.031 11.0859C161.375 11.0859 162.461 11.5547 163.289 12.4922V6H166.137V24H163.559L163.418 22.6875C162.566 23.7188 161.43 24.2344 160.008 24.2344C158.523 24.2344 157.32 23.6367 156.398 22.4414C155.484 21.2461 155.027 19.6211 155.027 17.5664ZM157.875 17.8125C157.875 19.1016 158.121 20.1094 158.613 20.8359C159.113 21.5547 159.82 21.9141 160.734 21.9141C161.898 21.9141 162.75 21.3945 163.289 20.3555V14.9414C162.766 13.9258 161.922 13.418 160.758 13.418C159.836 13.418 159.125 13.7852 158.625 14.5195C158.125 15.2461 157.875 16.3438 157.875 17.8125ZM174.691 24.2344C172.887 24.2344 171.422 23.668 170.297 22.5352C169.18 21.3945 168.621 19.8789 168.621 17.9883V17.6367C168.621 16.3711 168.863 15.2422 169.348 14.25C169.84 13.25 170.527 12.4727 171.41 11.918C172.293 11.3633 173.277 11.0859 174.363 11.0859C176.09 11.0859 177.422 11.6367 178.359 12.7383C179.305 13.8398 179.777 15.3984 179.777 17.4141V18.5625H171.492C171.578 19.6094 171.926 20.4375 172.535 21.0469C173.152 21.6562 173.926 21.9609 174.855 21.9609C176.16 21.9609 177.223 21.4336 178.043 20.3789L179.578 21.8438C179.07 22.6016 178.391 23.1914 177.539 23.6133C176.695 24.0273 175.746 24.2344 174.691 24.2344ZM174.352 13.3711C173.57 13.3711 172.938 13.6445 172.453 14.1914C171.977 14.7383 171.672 15.5 171.539 16.4766H176.965V16.2656C176.902 15.3125 176.648 14.5938 176.203 14.1094C175.758 13.6172 175.141 13.3711 174.352 13.3711ZM188.637 13.9219C188.262 13.8594 187.875 13.8281 187.477 13.8281C186.172 13.8281 185.293 14.3281 184.84 15.3281V24H181.992V11.3203H184.711L184.781 12.7383C185.469 11.6367 186.422 11.0859 187.641 11.0859C188.047 11.0859 188.383 11.1406 188.648 11.25L188.637 13.9219Z" fill="#A8A8B3"/>
<path fill-rule="evenodd" clip-rule="evenodd" d="M0 16C0 7.16002 7.16002 0 16 0C24.84 0 32 7.16002 31.9999 16C31.9999 24.832 24.8399 31.9999 16 31.9999C7.16002 31.9999 0 24.832 0 16ZM6.39997 25.6L19.504 19.504L25.6 6.39997L12.496 12.496L6.39997 25.6ZM17.76 16C17.76 16.968 16.9759 17.76 16 17.76C15.032 17.76 14.2399 16.968 14.2399 16C14.2399 15.0319 15.0319 14.2399 16 14.2399C16.976 14.2399 17.76 15.0319 17.76 16Z" fill="#121214"/>
</svg>
